#!OML:ASF H:\Terrain\Patient Classification 1\Walking\liu\liu.ASF
:FULLY-SPECIFIED
:DEGREES
300
root 9.68257 16.5567 32.9446 9.19932 -8.45108 3.64414
lowerback -2.77327 4.01964 -8.05855
upperback -1.24978 5.5572 0.365905
thorax -0.546795 2.84053 4.96236
lowerneck -13.3054 -4.53419 -15.2157
upperneck 16.281 -5.53446 13.413
head 8.0204 -2.38152 6.45783
rclavicle -6.59965e-014 -3.85642e-014
rhumerus -15.7861 40.7111 -89.5965
rradius 43.8441
rwrist -22.7708
rhand -37.5685 -10.8048
rfingers 7.12502
rthumb -10.623 -40.5163
lclavicle -6.59965e-014 -3.85642e-014
lhumerus -69.1973 17.5751 36.3915
lradius 10.4014
lwrist -40.8137
lhand -15.0053 -26.9594
lfingers 7.12502
lthumb 11.1597 2.72384
rfemur 0.153215 -4.84438 12.3639
rtibia 61.5642
rfoot 1.75309 -14.3495
rtoes -9.1764
lfemur -45.1684 8.85725 -29.758
ltibia 46.2636
lfoot -10.705 0.731798
ltoes -0.734288
301
root 9.71652 16.6153 33.2179 8.87136 -8.30359 4.13776
lowerback -3.13546 3.60267 -8.32401
upperback -0.0588343 5.09542 0.257382
thorax 0.948901 2.50839 5.08398
lowerneck -17.1484 -4.85821 -14.832
upperneck 16.9237 -5.56796 13.3429
head 8.92746 -2.2544 6.37304
rclavicle 1.27222e-014 -3.97569e-016
rhumerus -13.9974 40.6625 -88.7289
rradius 43.2519
rwrist -23.1673
rhand -32.3657 -20.1331
rfingers 7.12502
rthumb -5.60183 -50.0391
lclavicle 1.27222e-014 -3.97569e-016
lhumerus -68.6005 21.8455 34.3922
lradius 10.1157
lwrist -43.9846
lhand -15.4061 -27.3096
lfingers 7.12502
lthumb 10.773 2.39413
rfemur -1.26149 -5.41349 11.603
rtibia 63.7497
rfoot 0.15232 -14.0185
rtoes -9.5692
lfemur -43.4154 9.00171 -30.4736
ltibia 45.965
lfoot -11.8008 0.439986
ltoes -0.124613
302
root 9.72868 16.6832 33.3808 9.3796 -8.23797 3.67118
lowerback -3.13546 3.60267 -8.32401
upperback -0.0588343 5.09542 0.257382
thorax 0.948901 2.50839 5.08398
lowerneck -17.1484 -4.85821 -14.832
upperneck 16.9237 -5.56796 13.3429
head 8.92746 -2.2544 6.37304
rclavicle 1.27222e-014 -3.97569e-016
rhumerus -13.9974 40.6625 -88.7289
rradius 43.2519
rwrist -23.1673
rhand -32.3657 -20.1331
rfingers 7.12502
rthumb -5.60183 -50.0391
lclavicle 1.27222e-014 -3.97569e-016
lhumerus -68.6005 21.8455 34.3922
lradius 10.1157
lwrist -43.9846
lhand -15.4061 -27.3096
lfingers 7.12502
lthumb 10.773 2.39413
rfemur -4.55261 -5.35697 12.7434
rtibia 65.9271
rfoot -0.969528 -14.5777
rtoes -8.9554
lfemur -43.1197 8.9061 -29.9575
ltibia 45.567
lfoot -12.0166 0.377433
ltoes 0.139042
303
root 9.75502 16.758 33.6349 9.67004 -7.93544 3.09807
lowerback -3.13546 3.60267 -8.32401
upperback -0.0588343 5.09542 0.257382
thorax 0.948901 2.50839 5.08398
lowerneck -17.1484 -4.85821 -14.832
upperneck 16.9237 -5.56796 13.3429
head 8.92746 -2.2544 6.37304
rclavicle 1.27222e-014 -3.97569e-016
rhumerus -13.9974 40.6625 -88.7289
rradius 43.2519
rwrist -23.1673
rhand -32.3657 -20.1331
rfingers 7.12502
rthumb -5.60183 -50.0391
lclavicle 1.27222e-014 -3.97569e-016
lhumerus -68.6005 21.8455 34.3922
lradius 10.1157
lwrist -43.9846
lhand -15.4061 -27.3096
lfingers 7.12502
lthumb 10.773 2.39413
rfemur -6.65838 -5.62033 13.5817
rtibia 67.3578
rfoot -2.10301 -14.1859
rtoes -9.16379
lfemur -42.0029 8.78645 -29.4169
ltibia 45.007
lfoot -12.6019 0.154754
ltoes 1.28446
304
root 9.77718 16.8273 33.872 9.64227 -7.61553 2.92423
lowerback -3.13546 3.60267 -8.32401
upperback -0.0588343 5.09542 0.257382
thorax 0.948901 2.50839 5.08398
lowerneck -17.1484 -4.85821 -14.832
upperneck 16.9237 -5.56796 13.3429
head 8.92746 -2.2544 6.37304
rclavicle 1.27222e-014 -3.97569e-016
rhumerus -13.9974 40.6625 -88.7289
rradius 43.2519
rwrist -23.1673
rhand -32.3657 -20.1331
rfingers 7.12502
rthumb -5.60183 -50.0391
lclavicle 1.27222e-014 -3.97569e-016
lhumerus -68.6005 21.8455 34.3922
lradius 10.1157
lwrist -43.9846
lhand -15.4061 -27.3096
lfingers 7.12502
lthumb 10.773 2.39413
rfemur -8.54685 -5.76608 14.056
rtibia 68.5856
rfoot -3.01738 -13.3472
rtoes -10.8042
lfemur -40.4835 8.68122 -29.2654
ltibia 44.253
lfoot -13.2205 -0.0454074
ltoes 1.54659
305
root 9.79565 16.8925 34.0769 9.576 -7.45592 2.97116
lowerback -3.13546 3.60267 -8.32401
upperback -0.0588343 5.09542 0.257382
thorax 0.948901 2.50839 5.08398
lowerneck -17.1484 -4.85821 -14.832
upperneck 16.9237 -5.56796 13.3429
head 8.92746 -2.2544 6.37304
rclavicle 1.27222e-014 -3.97569e-016
rhumerus -13.9974 40.6625 -88.7289
rradius 43.2519
rwrist -23.1673
rhand -32.3657 -20.1331
rfingers 7.12502
rthumb -5.60183 -50.0391
lclavicle 1.27222e-014 -3.97569e-016
lhumerus -68.6005 21.8455 34.3922
lradius 10.1157
lwrist -43.9846
lhand -15.4061 -27.3096
lfingers 7.12502
lthumb 10.773 2.39413
rfemur -10.7383 -5.53182 14.4749
rtibia 69.5261
rfoot -3.83257 -12.5307
rtoes -13.2252
lfemur -39.0107 8.427 -29.2606
ltibia 43.3473
lfoot -13.7468 0.0869734
ltoes 0.661824
306
root 9.82354 16.9641 34.2841 9.62019 -7.23353 2.94565
lowerback -3.13546 3.60267 -8.32401
upperback -0.0588343 5.09542 0.257382
thorax 0.948901 2.50839 5.08398
lowerneck -17.1484 -4.85821 -14.832
upperneck 16.9237 -5.56796 13.3429
head 8.92746 -2.2544 6.37304
rclavicle 1.27222e-014 -3.97569e-016
rhumerus -13.9974 40.6625 -88.7289
rradius 43.2519
rwrist -23.1673
rhand -32.3657 -20.1331
rfingers 7.12502
rthumb -5.60183 -50.0391
lclavicle 1.27222e-014 -3.97569e-016
lhumerus -68.6005 21.8455 34.3922
lradius 10.1157
lwrist -43.9846
lhand -15.4061 -27.3096
lfingers 7.12502
lthumb 10.773 2.39413
rfemur -12.9672 -5.32064 14.9555
rtibia 70.1838
rfoot -4.94256 -11.6289
rtoes -15.2405
lfemur -37.5857 7.83127 -29.146
ltibia 42.2836
lfoot -14.1348 0.54026
ltoes 0.467363
307
root 9.8477 17.0403 34.5134 9.72921 -6.77491 2.76241
lowerback -3.13546 3.60267 -8.32401
upperback -0.0588343 5.09542 0.257382
thorax 0.948901 2.50839 5.08398
lowerneck -17.1484 -4.85821 -14.832
upperneck 16.9237 -5.56796 13.3429
head 8.92746 -2.2544 6.37304
rclavicle 1.27222e-014 -3.97569e-016
rhumerus -13.9974 40.6625 -88.7289
rradius 43.2519
rwrist -23.1673
rhand -32.3657 -20.1331
rfingers 7.12502
rthumb -5.60183 -50.0391
lclavicle 1.27222e-014 -3.97569e-016
lhumerus -68.6005 21.8455 34.3922
lradius 10.1157
lwrist -43.9846
lhand -15.4061 -27.3096
lfingers 7.12502
lthumb 10.773 2.39413
rfemur -14.9482 -5.37778 15.575
rtibia 70.4659
rfoot -6.27591 -10.5486
rtoes -16.8875
lfemur -36.0836 7.06764 -28.8487
ltibia 41.1499
lfoot -14.4601 0.88927
ltoes 1.77019
308
root 9.85761 17.1098 34.7447 9.69893 -6.35312 2.5531
lowerback -3.13546 3.60267 -8.32401
upperback -0.0588343 5.09542 0.257382
thorax 0.948901 2.50839 5.08398
lowerneck -17.1484 -4.85821 -14.832
upperneck 16.9237 -5.56796 13.3429
head 8.92746 -2.2544 6.37304
rclavicle 1.27222e-014 -3.97569e-016
rhumerus -13.9974 40.6625 -88.7289
rradius 43.2519
rwrist -23.1673
rhand -32.3657 -20.1331
rfingers 7.12502
rthumb -5.60183 -50.0391
lclavicle 1.27222e-014 -3.97569e-016
lhumerus -68.6005 21.8455 34.3922
lradius 10.1157
lwrist -43.9846
lhand -15.4061 -27.3096
lfingers 7.12502
lthumb 10.773 2.39413
rfemur -16.8006 -5.14795 16.3274
rtibia 70.4947
rfoot -7.53193 -9.76914
rtoes -17.8278
lfemur -34.4209 6.36109 -28.4682
ltibia 39.9675
lfoot -14.6913 1.22263
ltoes 2.38612
309
root 9.86002 17.166 34.9763 9.64045 -6.11328 2.45205
lowerback -3.13546 3.60267 -8.32401
upperback -0.0588343 5.09542 0.257382
thorax 0.948901 2.50839 5.08398
lowerneck -17.1484 -4.85821 -14.832
upperneck 16.9237 -5.56796 13.3429
head 8.92746 -2.2544 6.37304
rclavicle 1.27222e-014 -3.97569e-016
rhumerus -13.9974 40.6625 -88.7289
rradius 43.2519
rwrist -23.1673
rhand -32.3657 -20.1331
rfingers 7.12502
rthumb -5.60183 -50.0391
lclavicle 1.27222e-014 -3.97569e-016
lhumerus -68.6005 21.8455 34.3922
lradius 10.1157
lwrist -43.9846
lhand -15.4061 -27.3096
lfingers 7.12502
lthumb 10.773 2.39413
rfemur -18.5755 -4.42512 16.9971
rtibia 70.1867
rfoot -8.77972 -9.20292
rtoes -16.6054
lfemur -32.7129 5.71888 -28.2052
ltibia 38.6318
lfoot -14.8356 1.68163
ltoes 1.09896
310
root 9.85033 17.208 35.2142 9.44847 -6.15662 3.02618
lowerback -3.13546 3.60267 -8.32401
upperback -0.0588343 5.09542 0.257382
thorax 0.948901 2.50839 5.08398
lowerneck -17.1484 -4.85821 -14.832
upperneck 16.9237 -5.56796 13.3429
head 8.92746 -2.2544 6.37304
rclavicle 1.27222e-014 -3.97569e-016
rhumerus -13.9974 40.6625 -88.7289
rradius 43.2519
rwrist -23.1673
rhand -32.3657 -20.1331
rfingers 7.12502
rthumb -5.60183 -50.0391
lclavicle 1.27222e-014 -3.97569e-016
lhumerus -68.6005 21.8455 34.3922
lradius 10.1157
lwrist -43.9846
lhand -15.4061 -27.3096
lfingers 7.12502
lthumb 10.773 2.39413
rfemur -20.225 -3.60774 16.8104
rtibia 69.6302
rfoot -10.1247 -8.46721
rtoes -15.2341
lfemur -31.045 5.08092 -28.6446
ltibia 37.5351
lfoot -15.391 2.12464
ltoes 0.892871
311
root 9.9528 17.2815 35.4221 8.88175 -4.75323 3.74974
lowerback -3.13546 3.60267 -8.32401
upperback -0.0588343 5.09542 0.257382
thorax 0.948901 2.50839 5.08398
lowerneck -17.1484 -4.85821 -14.832
upperneck 16.9237 -5.56796 13.3429
head 8.92746 -2.2544 6.37304
rclavicle 1.27222e-014 -3.97569e-016
rhumerus -13.9974 40.6625 -88.7289
rradius 43.2519
rwrist -23.1673
rhand -32.3657 -20.1331
rfingers 7.12502
rthumb -5.60183 -50.0391
lclavicle 1.27222e-014 -3.97569e-016
lhumerus -68.6005 21.8455 34.3922
lradius 10.1157
lwrist -43.9846
lhand -15.4061 -27.3096
lfingers 7.12502
lthumb 10.773 2.39413
rfemur -20.721 -5.28521 15.6415
rtibia 68.6122
rfoot -11.2325 -6.45772
rtoes -16.745
lfemur -28.6599 3.28872 -29.6212
ltibia 36.4419
lfoot -16.1874 2.50116
ltoes 0.979409
312
root 9.89663 17.355 35.6939 8.98828 -4.62876 1.47591
lowerback -3.13546 3.60267 -8.32401
upperback -0.0588343 5.09542 0.257382
thorax 0.948901 2.50839 5.08398
lowerneck -17.1484 -4.85821 -14.832
upperneck 16.9237 -5.56796 13.3429
head 8.92746 -2.2544 6.37304
rclavicle 1.27222e-014 -3.97569e-016
rhumerus -13.9974 40.6625 -88.7289
rradius 43.2519
rwrist -23.1673
rhand -32.3657 -20.1331
rfingers 7.12502
rthumb -5.60183 -50.0391
lclavicle 1.27222e-014 -3.97569e-016
lhumerus -68.6005 21.8455 34.3922
lradius 10.1157
lwrist -43.9846
lhand -15.4061 -27.3096
lfingers 7.12502
lthumb 10.773 2.39413
rfemur -22.2095 -3.25007 19.225
rtibia 67.2959
rfoot -12.7373 -7.24327
rtoes -17.7208
lfemur -27.4129 3.25664 -26.7549
ltibia 35.8058
lfoot -16.7438 2.74219
ltoes 0.541108
313
root 9.94222 17.3727 35.9355 9.09958 -5.37137 1.28518
lowerback -3.13546 3.60267 -8.32401
upperback -0.0588343 5.09542 0.257382
thorax 0.948901 2.50839 5.08398
lowerneck -17.1484 -4.85821 -14.832
upperneck 16.9237 -5.56796 13.3429
head 8.92746 -2.2544 6.37304
rclavicle 1.27222e-014 -3.97569e-016
rhumerus -13.9974 40.6625 -88.7289
rradius 43.2519
rwrist -23.1673
rhand -32.3657 -20.1331
rfingers 7.12502
rthumb -5.60183 -50.0391
lclavicle 1.27222e-014 -3.97569e-016
lhumerus -68.6005 21.8455 34.3922
lradius 10.1157
lwrist -43.9846
lhand -15.4061 -27.3096
lfingers 7.12502
lthumb 10.773 2.39413
rfemur -23.7911 -2.1941 19.2148
rtibia 66.1195
rfoot -13.7057 -6.42386
rtoes -17.5644
lfemur -25.9238 2.96951 -26.8479
ltibia 35.2894
lfoot -17.9992 3.92009
ltoes -0.613321
